# xmcd CD database file
#
# Track frame offsets:
#	187
#	20427
#	33005
#	49322
#	71492
#	88582
#	105582
#	124955
#	138222
#	153515
#	175450
#
# Disc length: 2513 seconds
#
# Revision: 2
# Processed by: cddbd v1.4PL0 Copyright (c) Steve Scherf et al.
# Submitted via: CDex 1.40Release
#
DISCID=8e09cf0b
DTITLE=Annihilator - Set The World On Fire
DYEAR=1993
DGENRE=Thrash Metal
TTITLE0=Set The World On Fire
TTITLE1=No Zone
TTITLE2=Bats In The Belfry
TTITLE3=Snake In The Grass
TTITLE4=Phoenix Rising
TTITLE5=Knight Jumps Queen
TTITLE6=Sounds Good To Me
TTITLE7=The Edge
TTITLE8=Don't Bother Me 
TTITLE9=Brain Dance
TTITLE10=Hell Bent For Leather
EXTD=YEAR: 1993
EXTT0=
EXTT1=
EXTT2=
EXTT3=
EXTT4=
EXTT5=
EXTT6=
EXTT7=
EXTT8=
EXTT9=
EXTT10=
PLAYORDER=
